<svg version="1" xmlns="http://www.w3.org/2000/svg" width="341.333" height="341.333" viewBox="0 0 256.000000 256.000000"><path d="M0 128v128h256V0H0v128zM121 13.1c6.8 1.5 11.1 4.9 16.5 12.9 14 20.7 53.4 60.2 73.2 73.3 3.9 2.6 12 7 18 9.8 22.2 10.3 21.8 10 22.1 14.1.3 3.3 0 3.8-2.5 4.5-1.5.4-12.9.8-25.3.8-23.2-.1-30.7-1.1-36.4-4.8-1.3-.9-9.7-12.1-18.6-24.9-21.7-31-43.3-60.3-48.4-65.7-2.5-2.7-6.9-5.7-11.6-7.9-8.3-3.8-9-4.5-9-8.5 0-1.9.7-3 2.3-3.7 3-1.2 14.2-1.2 19.7.1zm-27.4 34c12.2 3.8 15.4 6.2 15.4 11.5 0 2.6-.9 4.5-3.8 7.7-2.1 2.3-6.8 8.7-10.5 14.2C85.2 95 76.3 105.6 64.2 117c-19.4 18.3-39.6 31-49.3 31-4.7 0-4.9-.1-4.9-2.8 0-3.6-.1-3.5 17.2-19C46.7 108.6 63.2 88 72 69.9c3-6.1 3.1-6.8 2.4-14.6-.3-4.5-.3-8.6 0-9.2 1.2-1.8 11.9-1.2 19.2 1zm75.2 70.9c10.5 5.3 16.2 11.3 16.2 17 0 3.3-.8 5.1-3.9 8.8-5.8 7-8.7 13.7-9.5 21.7-1.1 11.5-4.6 31.4-6.8 38.4-4.9 16.1-15.7 30.5-27.2 36.1-5.5 2.8-7.1 3.1-13.7 2.8l-7.4-.3-.8-4c-1.9-9.3-4-14.6-8.2-21.1-3.2-5-4.5-7.9-4.5-10.7 0-3.6.1-3.7 3.8-3.7 2.3 0 7.7 1.7 13.2 4.1 8.4 3.6 9.7 3.9 11.8 2.7 4.1-2.1 8.9-10.5 12.2-21.2 1.8-5.5 3.6-10.9 4.1-11.8 1.3-2.6 2.9-17.3 2.9-26.9 0-10.4-1.3-14.7-4.7-15.5-1.4-.4-9.1.4-17.1 1.8-11.6 1.9-14.6 2.7-14.3 3.9.3.8.6 3.4.9 5.7.3 3.6-.1 5.1-2.5 8.5-1.6 2.3-5.3 8.9-8.1 14.7-12.7 25.8-34.4 49-55.1 58.8-5.9 2.9-8.9 3.6-15.2 4l-7.9.5v-3.5c0-3.1.6-3.9 6.7-8.1 14.8-10.1 27.6-23.1 37.8-38.3 6.1-9.1 14.5-25 14.5-27.6 0-.9.5-2 1-2.3 1.2-.7 1.4-7.5.2-7.5-.5 0-3.1.7-5.8 1.5-7.3 2.2-18.6 2-23.5-.5-2.2-1.2-4.9-3-5.9-4-2.3-2.3-2.6-7.2-.7-8.8.7-.6 7.1-1.6 14.2-2.2 33.5-2.8 65.8-9 76.5-14.6 3.4-1.8 6.2-2.3 11.6-2.4 6.4 0 8 .4 15.2 4z"/></svg>